<?xml version="1.0" standalone="no"?>
<!DOCTYPE svg PUBLIC "-//W3C//DTD SVG 20010904//EN"
 "http://www.w3.org/TR/2001/REC-SVG-20010904/DTD/svg10.dtd">
<svg version="1.0" xmlns="http://www.w3.org/2000/svg"
 width="700.000000pt" height="700.000000pt" viewBox="0 0 700.000000 700.000000"
 preserveAspectRatio="xMidYMid meet">
<metadata>
Created by potrace 1.14, written by Peter Selinger 2001-2017
</metadata>
<g transform="translate(0.000000,700.000000) scale(0.100000,-0.100000)"
fill="#000000" stroke="none">
<path d="M2069 6863 c-1 -76 0 -148 1 -160 1 -21 -1 -21 -132 -22 -73 0 -145
0 -160 0 l-28 -1 -2 -317 -3 -318 -145 -1 c-80 0 -151 -2 -157 -2 -10 -2 -13
-104 -13 -477 l0 -475 -158 0 -158 0 0 -474 c1 -414 -1 -475 -14 -478 -8 -2
-153 -3 -322 -3 l-308 1 0 -158 c0 -144 2 -158 18 -159 9 0 153 0 320 -1 222
0 302 -3 303 -11 3 -45 4 -284 1 -294 -3 -10 -44 -13 -161 -13 l-156 0 0 -159
0 -160 314 0 c172 0 315 -2 317 -3 2 -2 4 -74 4 -159 l2 -155 794 1 794 0 1
-40 c3 -138 1 -264 -4 -272 -3 -4 -73 -8 -156 -8 -98 1 -152 -2 -154 -9 -2 -6
-3 -77 -2 -159 0 -125 -2 -147 -15 -148 -8 0 -79 -1 -157 -1 -140 0 -143 0
-144 -21 -1 -12 -1 -84 -2 -159 l0 -138 -159 0 -158 0 0 -637 0 -638 148 1
c81 0 153 3 158 7 7 4 11 61 10 157 -1 82 1 150 4 151 3 1 73 2 157 3 128 1
153 -1 155 -14 2 -8 4 -151 3 -317 0 -297 0 -303 20 -304 11 0 83 -1 159 -2
l139 -2 0 -157 0 -158 159 0 158 0 1 148 c1 81 1 152 0 159 -1 8 42 11 159 11
l160 0 0 -159 0 -159 318 2 317 3 0 315 0 315 157 1 c102 0 159 -4 161 -10 1
-6 2 -77 2 -159 l-1 -147 26 -1 c14 0 85 -1 158 0 l132 1 0 -160 0 -160 160 0
160 0 2 477 3 478 140 0 c77 0 148 -1 157 -3 16 -4 18 -22 20 -160 l3 -156
155 0 155 0 1 477 1 477 -159 0 -158 0 0 160 0 160 -160 0 -160 0 0 159 0 160
-147 -1 c-82 0 -154 1 -160 1 -10 1 -13 40 -13 159 l0 158 -157 0 -158 -1 -1
158 c0 106 3 157 10 158 6 1 220 2 476 3 l465 1 3 158 3 157 57 0 c79 1 281 1
442 0 l135 0 0 -157 0 -158 163 -1 162 0 0 158 0 158 -107 1 c-60 0 -133 1
-163 2 l-55 2 0 315 0 315 120 2 c66 1 139 2 163 3 l42 0 0 159 0 158 -160 -1
c-101 -1 -161 2 -163 9 -2 5 -3 148 -2 318 l0 307 -50 1 c-27 0 -98 0 -157 0
-78 0 -108 3 -109 12 -1 7 -2 217 -3 467 -2 250 -4 460 -4 467 -2 9 -43 11
-157 10 l-155 -2 0 160 0 160 -157 1 -158 0 -3 317 -2 317 -28 1 c-15 0 -87 1
-159 1 l-133 0 0 159 0 159 -318 0 -317 0 0 -157 0 -158 -153 -1 c-84 -1 -155
-4 -159 -7 -3 -4 -6 -75 -6 -159 l0 -153 -156 0 -156 0 -5 -160 -5 -159 -148
-1 c-82 0 -153 2 -158 5 -5 3 -10 75 -11 160 l-3 154 -145 2 c-80 0 -150 2
-157 2 -8 2 -11 44 -11 152 1 83 -1 153 -5 156 -3 3 -75 7 -159 7 l-153 2 0
155 0 155 -318 3 -317 2 -1 -137z m3149 -5592 l32 -1 0 -158 0 -159 -160 1
-160 1 0 157 0 157 28 3 c23 3 150 2 260 -1z"/>
<path d="M480 3182 c-6 -2 -10 -65 -10 -161 l0 -157 162 0 163 1 0 154 c1 105
-3 155 -11 158 -13 5 -290 9 -304 5z"/>
</g>
</svg>
